<svg xmlns="http://www.w3.org/2000/svg" viewBox="0 1 68 74"><defs><style>.cls-1{fill:#4b9fbb;}.cls-2{fill:none;}</style></defs><g id="Layer_2" data-name="Layer 2"><polygon class="cls-1" points="111.81 54.38 125.93 54.38 107.42 71.88 95.45 71.88 75.17 54.38 89.88 54.38 100.94 63.84 111.81 54.38"/><polygon class="cls-1" points="89.29 22.43 75.17 22.48 93.61 4.22 105.57 4.17 125.93 22.28 111.22 22.34 100.12 12.55 89.29 22.43"/><rect class="cls-1" x="86.65" y="88.34" width="50.6" height="8.07" transform="translate(39.69 -93.42) rotate(25.68)"/></g><g id="Layer_3" data-name="Layer 3"><text x="-11.4" y="-54.03"/><path class="cls-1" d="M48.69,126.37a29.78,29.78,0,0,1-12.41-2.6,31.49,31.49,0,0,1-10.18-7.34,34.7,34.7,0,0,1-6.86-10.93,36.58,36.58,0,0,1-2.46-13.59,33.78,33.78,0,0,1,2.51-13,35.05,35.05,0,0,1,6.91-10.8A31.23,31.23,0,0,1,36.57,60.8a31.9,31.9,0,0,1,12.87-2.6q9.57,0,16.34,4A25.77,25.77,0,0,1,76,72.88L66.2,80.07a17.43,17.43,0,0,0-7.1-7.67,19.85,19.85,0,0,0-10-2.65,17.07,17.07,0,0,0-7.82,1.8,18.83,18.83,0,0,0-6.1,4.92,22.16,22.16,0,0,0-3.89,7.2,27.77,27.77,0,0,0-1.32,8.62,26,26,0,0,0,1.47,8.9,21.93,21.93,0,0,0,4.16,7.15,19.37,19.37,0,0,0,6.3,4.78,18.43,18.43,0,0,0,8,1.7,19.52,19.52,0,0,0,9.85-2.65,30.9,30.9,0,0,0,8.71-7.76v13Q60,126.38,48.69,126.37ZM67.44,100.9H53.9V91.34H78.23V125.9H67.44Z" transform="translate(-11.4 -54.03)"/></g><g id="Layer_4" data-name="Layer 4"><path class="cls-1" d="M84.37,135.69h7.22L79.15,165.18H72.78l-5-12.66L62.9,165.18H56.53L44,135.69h7.21L60.11,158l3.47-9.63-5.17-12.66h6.31l3.06,9.06,3.13-9.06h6.3L72,148.35,75.57,158Z" transform="translate(-11.4 -54.03)"/><path class="cls-1" d="M92.33,156.48a8,8,0,0,1,1.62-5,10.65,10.65,0,0,1,4.48-3.34,17.24,17.24,0,0,1,6.68-1.21,26.14,26.14,0,0,1,3.81.29,13,13,0,0,1,3.35.91V146.5a5.43,5.43,0,0,0-1.65-4.24,7.09,7.09,0,0,0-4.94-1.51,13,13,0,0,0-4.72.85A25.63,25.63,0,0,0,96.3,144l-2.38-4.94a21.69,21.69,0,0,1,6-2.92,22.18,22.18,0,0,1,6.51-.94q6.36,0,9.91,3.11t3.55,9v9.35a2.59,2.59,0,0,0,.43,1.68,2.06,2.06,0,0,0,1.39.62v6.19c-.68.11-1.3.21-1.85.28a5.7,5.7,0,0,1-1.39.06,5.21,5.21,0,0,1-3.44-1,4,4,0,0,1-1.39-2.48l-.17-1.53a13.43,13.43,0,0,1-4.88,3.86,13.76,13.76,0,0,1-5.91,1.37,11.18,11.18,0,0,1-5.31-1.24,9.37,9.37,0,0,1-3.7-3.34A8.55,8.55,0,0,1,92.33,156.48Zm18.52,1.43a4.79,4.79,0,0,0,1-1.27,2.61,2.61,0,0,0,.4-1.22v-2.94a16.67,16.67,0,0,0-6-1.16,8.66,8.66,0,0,0-4.85,1.24,3.79,3.79,0,0,0-1.91,3.3,4,4,0,0,0,.63,2.13,4.39,4.39,0,0,0,1.79,1.64,6.19,6.19,0,0,0,2.87.61,8.78,8.78,0,0,0,3.35-.67A8.11,8.11,0,0,0,110.85,157.91Z" transform="translate(-11.4 -54.03)"/><path class="cls-1" d="M144.77,142a15.19,15.19,0,0,0-6.25,1.33,8.19,8.19,0,0,0-4,3.78v18.07H127V135.69h7v6.08a13.48,13.48,0,0,1,4.06-4.83,9.93,9.93,0,0,1,5.2-1.93,5,5,0,0,0,.91,0,1.44,1.44,0,0,1,.63.08Z" transform="translate(-11.4 -54.03)"/><path class="cls-1" d="M162.38,165.75a16.78,16.78,0,0,1-6.48-1.21,14.58,14.58,0,0,1-8.07-8.12,15.41,15.41,0,0,1-1.08-5.79,15.86,15.86,0,0,1,1.91-7.67,14.59,14.59,0,0,1,5.39-5.61,15.9,15.9,0,0,1,8.38-2.11,15.63,15.63,0,0,1,8.3,2.11,14.62,14.62,0,0,1,5.34,5.54,15.36,15.36,0,0,1,1.87,7.49c0,.48,0,.94-.05,1.37s-.08.8-.12,1.1h-23a8,8,0,0,0,1.28,4,7.58,7.58,0,0,0,2.84,2.53,8,8,0,0,0,3.67.89,8.84,8.84,0,0,0,4.34-1.11,5.84,5.84,0,0,0,2.76-3l6.47,1.81a11.81,11.81,0,0,1-3,4,14.54,14.54,0,0,1-4.71,2.75A17.51,17.51,0,0,1,162.38,165.75Zm-7.78-17.67h15.56a8.66,8.66,0,0,0-1.28-3.86,7.4,7.4,0,0,0-2.75-2.55,7.84,7.84,0,0,0-3.81-.92,7.54,7.54,0,0,0-3.72.92,7.42,7.42,0,0,0-2.73,2.55A8.65,8.65,0,0,0,154.6,148.08Z" transform="translate(-11.4 -54.03)"/></g><g id="Layer_5" data-name="Layer 5"><rect class="cls-1" x="71.27" y="66.6" width="6.56" height="6.56" rx="2.03" transform="translate(76.71 -85.42) rotate(54.48)"/><rect class="cls-1" x="62.83" y="59.25" width="6.56" height="6.56" rx="2.03" transform="translate(28.72 -78.7) rotate(30)"/><rect class="cls-1" x="52.31" y="55.47" width="6.56" height="6.56" rx="2.03" transform="translate(0.48 -63.33) rotate(10.71)"/><rect class="cls-1" x="40.64" y="55.1" width="6.56" height="6.56" rx="2.03" transform="translate(-21.42 -44.93) rotate(-10.63)"/><rect class="cls-1" x="29.53" y="59.25" width="6.56" height="6.56" rx="2.03" transform="translate(-39.82 -26.68) rotate(-32.43)"/><rect class="cls-1" x="21.05" y="66.82" width="6.56" height="6.56" rx="2.03" transform="translate(-57.8 -6.38) rotate(-53.25)"/><rect class="cls-1" x="15.28" y="77.05" width="6.56" height="6.56" rx="2.03" transform="translate(-74.75 16.97) rotate(-70.49)"/><rect class="cls-1" x="2.09" y="35.3" width="6.56" height="6.56" rx="2.03"/><rect class="cls-1" x="15.28" y="100.52" width="6.56" height="6.56" rx="2.03" transform="translate(-44.32 -42.25) rotate(-19.08)"/><rect class="cls-1" x="20.85" y="111.05" width="6.56" height="6.56" rx="2.03" transform="translate(-74.25 -17.73) rotate(-36.18)"/><rect class="cls-1" x="29.37" y="118.57" width="6.56" height="6.56" rx="2.03" transform="translate(53.89 -54.02) rotate(30)"/><rect class="cls-1" x="40.64" y="122.58" width="6.56" height="6.56" rx="2.03" transform="translate(13.93 -60.17) rotate(11.22)"/><rect class="cls-1" x="53.34" y="122.1" width="6.56" height="6.56" rx="2.03" transform="matrix(0.95, -0.33, 0.33, 0.95, -49.28, -28.63)"/><rect class="cls-1" x="63.79" y="116.79" width="6.56" height="6.56" rx="2.03" transform="translate(-71.48 13.62) rotate(-38.41)"/></g><g id="Layer_9" data-name="Layer 9"><path class="cls-1" d="M186.49,89.22c0,.24-.22.54-.81.12a45.73,45.73,0,0,0-5.6-3.61,28.11,28.11,0,0,0-4.31-1.48c-2.43-.66-4.63-.66-5-1-.1-.11-.08-.29.14-.36,1-.32,3.88-.1,6.33.53a20.16,20.16,0,0,1,5.2,2.17C184.82,87,186.52,88.78,186.49,89.22Z" transform="translate(-11.4 -54.03)"/></g><g id="Layer_13" data-name="Layer 13"><path class="cls-1" d="M183.27,67.35l-25,2.49v10c0-.44.09-.84.15-1.19.31-1.85,2.62-2.11,3-2.11s2.68.28,3,2.28c.46,2.83.43,7.81.43,12.81,0,5.24.12,10.87-.17,13.64-.18,1.78-2.84,2.12-3.25,2.12s-2.56-.31-2.88-2.12a29,29,0,0,1-.32-3.82v12.74l24.41.73,10.11-23.75ZM172.9,103.23c-3.54.1-4.85-.07-5.74,0-.64,0-.62.15-.61-1.07,0-6.14,0-6.87,0-10.37s0-3.91,0-10.2c0-1.35-.3-1.3.64-1.25s3.06,0,5.2,0c9.5,0,17.08,5.23,17.08,11S183.46,102.93,172.9,103.23Z" transform="translate(-11.4 -54.03)"/></g><g id="Layer_14" data-name="Layer 14"><path class="cls-2" d="M160.29,86.88h-2v9.8h2.29V100h-2.29v14.12h11.36a19.26,19.26,0,0,0,10.94-2.94,18.73,18.73,0,0,0,6.72-8,26.73,26.73,0,0,0,2.32-11.36,26.59,26.59,0,0,0-2.36-11.51,18.21,18.21,0,0,0-6.82-7.76,19.86,19.86,0,0,0-10.8-2.8H158.31V83.52h2Z" transform="translate(-11.4 -54.03)"/><rect class="cls-1" x="133.84" y="32.85" width="13.07" height="9.8"/><path class="cls-1" d="M199.12,75A28.46,28.46,0,0,0,188,62.88q-7.38-4.49-18.37-4.49H145.24V83.52h13.07V69.84h11.36a19.86,19.86,0,0,1,10.8,2.8,18.21,18.21,0,0,1,6.82,7.76,26.59,26.59,0,0,1,2.36,11.51,26.73,26.73,0,0,1-2.32,11.36,18.73,18.73,0,0,1-6.72,8,19.26,19.26,0,0,1-10.94,2.94H158.31V100H145.24v25.57h24.43a35.34,35.34,0,0,0,17.57-4.16,28.83,28.83,0,0,0,11.5-11.74,37,37,0,0,0,4.07-17.8A38.33,38.33,0,0,0,199.12,75Z" transform="translate(-11.4 -54.03)"/></g></svg>